<?xml version="1.0" encoding="UTF-8"?>
<svg id="Layer_1" data-name="Layer 1" xmlns="http://www.w3.org/2000/svg" viewBox="0 0 686 254">
  <defs>
    <style>
      .cls-1 {
        fill: none;
      }

      .cls-2 {
        fill: #82519f;
      }
    </style>
  </defs>
  <g>
    <polygon class="cls-2" points="30.95 223.3 30.95 29.69 209.77 29.69 209.77 71.64 73.16 71.64 73.16 105.52 183.14 105.52 183.14 147.47 73.16 147.47 73.16 181.35 209.77 181.35 209.77 223.3 30.95 223.3"/>
    <path class="cls-2" d="M236.92,69.49c0-7.35,1.79-14.02,5.38-20.03,3.59-6.01,8.42-10.8,14.52-14.39,6.09-3.59,12.73-5.37,19.9-5.37h113.74c7.35,0,14.03,1.79,20.03,5.37,6,3.59,10.84,8.38,14.52,14.39,3.67,6.01,5.51,12.68,5.51,20.03v153.81h-42.22v-62.39h-109.71v62.39h-41.68V69.49ZM388.31,71.64h-109.71v47.33h109.71v-47.33Z"/>
    <polygon class="cls-2" points="461.45 223.3 461.45 29.42 503.13 29.42 503.13 181.35 655.05 181.35 655.05 223.3 461.45 223.3"/>
  </g>
  <rect class="cls-1" y="-171.28" width="841.89" height="595.28"/>
</svg>